<svg width="209" height="20" viewBox="0 0 209 20" fill="none" xmlns="http://www.w3.org/2000/svg">
<g clip-path="url(#clip0_107_40)">
<rect width="209" height="20" fill="white"/>
<path d="M12 2H4V3.36H12C15.66 3.36 18.64 6.34 18.64 10C18.64 13.68 15.66 16.66 12 16.66H4V18H12C16.4 18 20 14.42 20 10C20 5.6 16.4 2 12 2Z" fill="#00204B"/>
<path d="M4 2V1.5H3.5V2H4ZM4 3.36H3.5V3.86H4V3.36ZM4 16.66V16.16H3.5V16.66H4ZM4 18H3.5V18.5H4V18ZM12 1.5H4V2.5H12V1.5ZM3.5 2V3.36H4.5V2H3.5ZM4 3.86H12V2.86H4V3.86ZM12 3.86C15.3839 3.86 18.14 6.61614 18.14 10H19.14C19.14 6.06386 15.9361 2.86 12 2.86V3.86ZM18.14 10C18.14 13.4048 15.3829 16.16 12 16.16V17.16C15.9371 17.16 19.14 13.9552 19.14 10H18.14ZM12 16.16H4V17.16H12V16.16ZM3.5 16.66V18H4.5V16.66H3.5ZM4 18.5H12V17.5H4V18.5ZM12 18.5C16.6753 18.5 20.5 14.697 20.5 10H19.5C19.5 14.143 16.1247 17.5 12 17.5V18.5ZM20.5 10C20.5 5.32386 16.6761 1.5 12 1.5V2.5C16.1239 2.5 19.5 5.87614 19.5 10H20.5Z" fill="#00204B"/>
<path d="M14 10C14 14.42 17.58 18 22 18H30V16.66H22C18.32 16.66 15.34 13.68 15.34 10C15.34 6.34 18.32 3.36 22 3.36H30V2H22C17.58 2 14 5.6 14 10Z" fill="#00204B"/>
<path d="M30 18V18.5H30.5V18H30ZM30 16.66H30.5V16.16H30V16.66ZM30 3.36V3.86H30.5V3.36H30ZM30 2H30.5V1.5H30V2ZM13.5 10C13.5 14.6961 17.3039 18.5 22 18.5V17.5C17.8561 17.5 14.5 14.1439 14.5 10H13.5ZM22 18.5H30V17.5H22V18.5ZM30.5 18V16.66H29.5V18H30.5ZM30 16.16H22V17.16H30V16.16ZM22 16.16C18.5961 16.16 15.84 13.4039 15.84 10H14.84C14.84 13.9561 18.0439 17.16 22 17.16V16.16ZM15.84 10C15.84 6.61712 18.5952 3.86 22 3.86V2.86C18.0448 2.86 14.84 6.06288 14.84 10H15.84ZM22 3.86H30V2.86H22V3.86ZM30.5 3.36V2H29.5V3.36H30.5ZM30 1.5H22V2.5H30V1.5ZM22 1.5C17.303 1.5 13.5 5.32467 13.5 10H14.5C14.5 5.87533 17.857 2.5 22 2.5V1.5Z" fill="#00204B"/>
<path d="M40.5645 16V3.39648H44.8184C46.6289 3.39648 48.085 3.97363 49.1865 5.12793C50.2822 6.27637 50.8301 7.7998 50.8301 9.69824C50.8301 11.5146 50.2939 13.0205 49.2217 14.2158C48.1553 15.4053 46.6875 16 44.8184 16H40.5645ZM42.6035 14.1104H44.6514C45.958 14.1104 46.9541 13.7148 47.6396 12.9238C48.3252 12.1328 48.668 11.0576 48.668 9.69824C48.668 8.35645 48.3252 7.29004 47.6396 6.49902C46.9482 5.70215 45.9521 5.30371 44.6514 5.30371H42.6035V14.1104ZM55.6201 16.1582C54.6182 16.1582 53.8301 15.8828 53.2559 15.332C52.6699 14.8047 52.377 14.1162 52.377 13.2666C52.377 12.3936 52.6934 11.6963 53.3262 11.1748C53.9707 10.6475 54.9199 10.3838 56.1738 10.3838C56.918 10.3838 57.6387 10.4863 58.3359 10.6914V9.83008C58.3359 9.35547 58.1865 8.96875 57.8877 8.66992C57.583 8.38281 57.1201 8.23926 56.499 8.23926C55.96 8.23926 55.541 8.37109 55.2422 8.63477C54.9316 8.91016 54.7676 9.24121 54.75 9.62793H52.8076C52.8076 8.7373 53.1445 7.99902 53.8184 7.41309C54.4805 6.83887 55.3857 6.55176 56.5342 6.55176C57.7236 6.55176 58.6582 6.85645 59.3379 7.46582C60.0234 8.08105 60.3662 8.86035 60.3662 9.80371V16H58.5645L58.4238 14.9014H58.3535C57.7793 15.7393 56.8682 16.1582 55.6201 16.1582ZM56.0859 14.5234C56.7598 14.5234 57.3047 14.3242 57.7207 13.9258C58.1309 13.5332 58.3359 13.0557 58.3359 12.4932V12.1855C57.709 11.9688 57.0352 11.8604 56.3145 11.8604C55.6934 11.8604 55.2275 11.9746 54.917 12.2031C54.5889 12.4434 54.4248 12.7744 54.4248 13.1963C54.4248 13.5947 54.5684 13.9111 54.8555 14.1455C55.125 14.3975 55.5352 14.5234 56.0859 14.5234ZM62.8184 16V6.70996H64.541L64.7256 8.18652H64.7959C65.0068 7.68848 65.3115 7.29883 65.71 7.01758C66.1201 6.73047 66.6182 6.58691 67.2041 6.58691H67.96V8.49414H67.1689C66.3838 8.49414 65.7949 8.75195 65.4023 9.26758C64.998 9.77734 64.7959 10.5098 64.7959 11.4648V16H62.8184ZM73.1543 16.1582C71.9238 16.1582 70.9717 15.8652 70.2979 15.2793C69.5947 14.6816 69.2344 13.8906 69.2168 12.9062H71.2646C71.2646 13.3574 71.4346 13.7178 71.7744 13.9873C72.1201 14.2627 72.5801 14.4004 73.1543 14.4004C74.3438 14.4004 74.9385 14.0518 74.9385 13.3545C74.9385 12.8037 74.5312 12.4492 73.7168 12.291L72.082 11.9834C70.3652 11.6377 69.5068 10.7266 69.5068 9.25C69.5068 8.4707 69.8291 7.82324 70.4736 7.30762C71.1123 6.80371 71.9824 6.55176 73.084 6.55176C74.1855 6.55176 75.085 6.83301 75.7822 7.39551C76.4561 7.95215 76.793 8.68457 76.793 9.59277H74.7803C74.7627 9.16504 74.5986 8.82227 74.2881 8.56445C73.9775 8.32422 73.5645 8.2041 73.0488 8.2041C72.5859 8.2041 72.2139 8.29492 71.9326 8.47656C71.6455 8.67578 71.502 8.93945 71.502 9.26758C71.502 9.81836 71.9092 10.1553 72.7236 10.2783L74.3057 10.5859C75.2373 10.8027 75.9111 11.1016 76.3271 11.4824C76.7842 11.9043 77.0127 12.5283 77.0127 13.3545C77.0127 14.2393 76.6523 14.9219 75.9316 15.4023C75.1875 15.9062 74.2617 16.1582 73.1543 16.1582ZM79.0254 16V2.67578H81.0732V7.91406H81.1436C81.7178 7.00586 82.6172 6.55176 83.8418 6.55176C84.8906 6.55176 85.7139 6.85059 86.3115 7.44824C86.9092 8.06348 87.208 8.89258 87.208 9.93555V16H85.1602V10.4365C85.1602 9.08301 84.5244 8.40625 83.2529 8.40625C82.6025 8.40625 82.0811 8.62891 81.6885 9.07422C81.2783 9.51953 81.0732 10.123 81.0732 10.8848V16H79.0254ZM90.6797 5.28613C90.2578 5.28613 89.9355 5.1748 89.7129 4.95215C89.4844 4.72363 89.3701 4.4043 89.3701 3.99414C89.3701 3.5957 89.4844 3.28223 89.7129 3.05371C89.918 2.83105 90.2402 2.71973 90.6797 2.71973C91.1074 2.71973 91.4326 2.83105 91.6553 3.05371C91.8838 3.28223 91.998 3.5957 91.998 3.99414C91.998 4.38672 91.8838 4.69727 91.6553 4.92578C91.415 5.16602 91.0898 5.28613 90.6797 5.28613ZM89.6602 16V6.70996H91.708V16H89.6602ZM97.6846 16.1582C95.8506 16.1582 94.9336 15.2588 94.9336 13.46V8.45898H93.3955V6.70996H95.0215V4.75L96.8057 4.24902H96.9814V6.70996H99.2314V8.45898H96.9814V13.0996C96.9814 13.5449 97.0781 13.8643 97.2715 14.0576C97.4766 14.2627 97.7812 14.3652 98.1855 14.3652C98.5137 14.3652 98.8154 14.3213 99.0908 14.2334H99.2666V15.9648C98.833 16.0938 98.3057 16.1582 97.6846 16.1582ZM104.03 16.1582C103.028 16.1582 102.24 15.8828 101.666 15.332C101.08 14.8047 100.787 14.1162 100.787 13.2666C100.787 12.3936 101.104 11.6963 101.736 11.1748C102.381 10.6475 103.33 10.3838 104.584 10.3838C105.328 10.3838 106.049 10.4863 106.746 10.6914V9.83008C106.746 9.35547 106.597 8.96875 106.298 8.66992C105.993 8.38281 105.53 8.23926 104.909 8.23926C104.37 8.23926 103.951 8.37109 103.652 8.63477C103.342 8.91016 103.178 9.24121 103.16 9.62793H101.218C101.218 8.7373 101.555 7.99902 102.229 7.41309C102.891 6.83887 103.796 6.55176 104.944 6.55176C106.134 6.55176 107.068 6.85645 107.748 7.46582C108.434 8.08105 108.776 8.86035 108.776 9.80371V16H106.975L106.834 14.9014H106.764C106.189 15.7393 105.278 16.1582 104.03 16.1582ZM104.496 14.5234C105.17 14.5234 105.715 14.3242 106.131 13.9258C106.541 13.5332 106.746 13.0557 106.746 12.4932V12.1855C106.119 11.9688 105.445 11.8604 104.725 11.8604C104.104 11.8604 103.638 11.9746 103.327 12.2031C102.999 12.4434 102.835 12.7744 102.835 13.1963C102.835 13.5947 102.979 13.9111 103.266 14.1455C103.535 14.3975 103.945 14.5234 104.496 14.5234ZM121.793 16.1582C119.941 16.1582 118.512 15.5664 117.504 14.3828C116.496 13.2168 115.992 11.6611 115.992 9.71582C115.992 7.77051 116.496 6.20605 117.504 5.02246C118.518 3.83301 119.947 3.23828 121.793 3.23828C123.316 3.23828 124.547 3.66309 125.484 4.5127C126.416 5.35645 126.943 6.4668 127.066 7.84375H124.904C124.816 7.03516 124.512 6.3877 123.99 5.90137C123.475 5.4209 122.742 5.18066 121.793 5.18066C120.562 5.18066 119.648 5.59375 119.051 6.41992C118.453 7.26367 118.154 8.3623 118.154 9.71582C118.154 11.0752 118.453 12.168 119.051 12.9941C119.648 13.8203 120.562 14.2334 121.793 14.2334C122.689 14.2334 123.401 14.0049 123.929 13.5479C124.45 13.0967 124.781 12.4727 124.922 11.6758H127.066C126.908 13 126.366 14.0811 125.44 14.9189C124.526 15.7451 123.311 16.1582 121.793 16.1582ZM129.229 16V2.67578H131.276V7.91406H131.347C131.921 7.00586 132.82 6.55176 134.045 6.55176C135.094 6.55176 135.917 6.85059 136.515 7.44824C137.112 8.06348 137.411 8.89258 137.411 9.93555V16H135.363V10.4365C135.363 9.08301 134.728 8.40625 133.456 8.40625C132.806 8.40625 132.284 8.62891 131.892 9.07422C131.481 9.51953 131.276 10.123 131.276 10.8848V16H129.229ZM142.491 16.1582C141.489 16.1582 140.701 15.8828 140.127 15.332C139.541 14.8047 139.248 14.1162 139.248 13.2666C139.248 12.3936 139.564 11.6963 140.197 11.1748C140.842 10.6475 141.791 10.3838 143.045 10.3838C143.789 10.3838 144.51 10.4863 145.207 10.6914V9.83008C145.207 9.35547 145.058 8.96875 144.759 8.66992C144.454 8.38281 143.991 8.23926 143.37 8.23926C142.831 8.23926 142.412 8.37109 142.113 8.63477C141.803 8.91016 141.639 9.24121 141.621 9.62793H139.679C139.679 8.7373 140.016 7.99902 140.689 7.41309C141.352 6.83887 142.257 6.55176 143.405 6.55176C144.595 6.55176 145.529 6.85645 146.209 7.46582C146.895 8.08105 147.237 8.86035 147.237 9.80371V16H145.436L145.295 14.9014H145.225C144.65 15.7393 143.739 16.1582 142.491 16.1582ZM142.957 14.5234C143.631 14.5234 144.176 14.3242 144.592 13.9258C145.002 13.5332 145.207 13.0557 145.207 12.4932V12.1855C144.58 11.9688 143.906 11.8604 143.186 11.8604C142.564 11.8604 142.099 11.9746 141.788 12.2031C141.46 12.4434 141.296 12.7744 141.296 13.1963C141.296 13.5947 141.439 13.9111 141.727 14.1455C141.996 14.3975 142.406 14.5234 142.957 14.5234ZM153.214 16.1582C151.38 16.1582 150.463 15.2588 150.463 13.46V8.45898H148.925V6.70996H150.551V4.75L152.335 4.24902H152.511V6.70996H154.761V8.45898H152.511V13.0996C152.511 13.5449 152.607 13.8643 152.801 14.0576C153.006 14.2627 153.311 14.3652 153.715 14.3652C154.043 14.3652 154.345 14.3213 154.62 14.2334H154.796V15.9648C154.362 16.0938 153.835 16.1582 153.214 16.1582ZM162.759 6.70996H164.815V12.4756C164.815 13.5596 164.467 14.4414 163.77 15.1211C163.072 15.8008 162.088 16.1406 160.816 16.1406C159.551 16.1406 158.572 15.7949 157.881 15.1035C157.172 14.4121 156.817 13.5361 156.817 12.4756V6.70996H158.874V12.1504C158.874 13.5508 159.521 14.251 160.816 14.251C162.111 14.251 162.759 13.5508 162.759 12.1504V6.70996ZM167.338 16V6.70996H169.061L169.245 8.18652H169.315C169.526 7.68848 169.831 7.29883 170.229 7.01758C170.64 6.73047 171.138 6.58691 171.724 6.58691H172.479V8.49414H171.688C170.903 8.49414 170.314 8.75195 169.922 9.26758C169.518 9.77734 169.315 10.5098 169.315 11.4648V16H167.338ZM176.83 16L173.481 6.89453V6.70996H175.582L178.017 13.873H178.087L180.442 6.70996H182.534V6.89453L179.238 16H176.83ZM187.605 16.1582C186.229 16.1582 185.153 15.71 184.38 14.8135C183.601 13.9111 183.211 12.7598 183.211 11.3594C183.211 9.94727 183.589 8.79297 184.345 7.89648C185.083 7 186.155 6.55176 187.562 6.55176C188.897 6.55176 189.932 6.9707 190.664 7.80859C191.396 8.64648 191.763 9.7334 191.763 11.0693V11.9307H185.338C185.338 12.6982 185.534 13.3047 185.927 13.75C186.313 14.207 186.873 14.4355 187.605 14.4355C188.719 14.4355 189.396 14.0137 189.636 13.1699H191.631C191.508 14.0488 191.077 14.7637 190.339 15.3145C189.589 15.877 188.678 16.1582 187.605 16.1582ZM185.355 10.4717H189.653C189.636 9.82715 189.457 9.2998 189.117 8.88965C188.754 8.49121 188.235 8.29199 187.562 8.29199C186.864 8.29199 186.325 8.49121 185.944 8.88965C185.569 9.2998 185.373 9.82715 185.355 10.4717ZM197.045 16.1582C195.855 16.1582 194.921 15.7217 194.241 14.8486C193.55 13.9873 193.195 12.8184 193.178 11.3418C193.195 9.89453 193.544 8.73438 194.224 7.86133C194.886 6.98828 195.826 6.55176 197.045 6.55176C198.264 6.55176 199.151 6.97656 199.708 7.82617H199.778V2.67578H201.835V16H200.016L199.778 14.8838H199.708C199.151 15.7334 198.264 16.1582 197.045 16.1582ZM197.555 14.3477C198.316 14.3477 198.891 14.0635 199.277 13.4951C199.664 12.9268 199.857 12.209 199.857 11.3418C199.857 10.4629 199.67 9.74805 199.295 9.19727C198.92 8.64648 198.34 8.37109 197.555 8.37109C196.758 8.37109 196.181 8.64648 195.823 9.19727C195.448 9.74805 195.261 10.4629 195.261 11.3418C195.261 12.2266 195.448 12.9443 195.823 13.4951C196.192 14.0635 196.77 14.3477 197.555 14.3477ZM205.307 5.28613C204.885 5.28613 204.562 5.1748 204.34 4.95215C204.111 4.72363 203.997 4.4043 203.997 3.99414C203.997 3.5957 204.111 3.28223 204.34 3.05371C204.545 2.83105 204.867 2.71973 205.307 2.71973C205.734 2.71973 206.06 2.83105 206.282 3.05371C206.511 3.28223 206.625 3.5957 206.625 3.99414C206.625 4.38672 206.511 4.69727 206.282 4.92578C206.042 5.16602 205.717 5.28613 205.307 5.28613ZM204.287 16V6.70996H206.335V16H204.287Z" fill="#00204B"/>
</g>
<defs>
<clipPath id="clip0_107_40">
<rect width="209" height="20" fill="white"/>
</clipPath>
</defs>
</svg>
