<svg width="271" height="24" viewBox="0 0 271 24" fill="none" xmlns="http://www.w3.org/2000/svg">
<g clip-path="url(#clip0_201_21)">
<rect width="271" height="24" fill="white"/>
<path d="M12 2.8H2.4V4.432H12C16.392 4.432 19.968 8.008 19.968 12.4C19.968 16.816 16.392 20.392 12 20.392H2.4V22H12C17.28 22 21.6 17.704 21.6 12.4C21.6 7.12 17.28 2.8 12 2.8Z" fill="#00204B"/>
<path d="M2.4 2.8V2.3H1.9V2.8H2.4ZM2.4 4.432H1.9V4.932H2.4V4.432ZM2.4 20.392V19.892H1.9V20.392H2.4ZM2.4 22H1.9V22.5H2.4V22ZM12 2.3H2.4V3.3H12V2.3ZM1.9 2.8V4.432H2.9V2.8H1.9ZM2.4 4.932H12V3.932H2.4V4.932ZM12 4.932C16.1159 4.932 19.468 8.28414 19.468 12.4H20.468C20.468 7.73186 16.6681 3.932 12 3.932V4.932ZM19.468 12.4C19.468 16.5408 16.1149 19.892 12 19.892V20.892C16.6691 20.892 20.468 17.0912 20.468 12.4H19.468ZM12 19.892H2.4V20.892H12V19.892ZM1.9 20.392V22H2.9V20.392H1.9ZM2.4 22.5H12V21.5H2.4V22.5ZM12 22.5C17.5553 22.5 22.1 17.981 22.1 12.4H21.1C21.1 17.427 17.0047 21.5 12 21.5V22.5ZM22.1 12.4C22.1 6.84386 17.5561 2.3 12 2.3V3.3C17.0039 3.3 21.1 7.39614 21.1 12.4H22.1Z" fill="#00204B"/>
<path d="M14.4 12.4C14.4 17.704 18.696 22 24 22H33.6V20.392H24C19.584 20.392 16.008 16.816 16.008 12.4C16.008 8.008 19.584 4.432 24 4.432H33.6V2.8H24C18.696 2.8 14.4 7.12 14.4 12.4Z" fill="#00204B"/>
<path d="M33.6 22V22.5H34.1V22H33.6ZM33.6 20.392H34.1V19.892H33.6V20.392ZM33.6 4.432V4.932H34.1V4.432H33.6ZM33.6 2.8H34.1V2.3H33.6V2.8ZM13.9 12.4C13.9 17.9801 18.4199 22.5 24 22.5V21.5C18.9721 21.5 14.9 17.4279 14.9 12.4H13.9ZM24 22.5H33.6V21.5H24V22.5ZM34.1 22V20.392H33.1V22H34.1ZM33.6 19.892H24V20.892H33.6V19.892ZM24 19.892C19.8601 19.892 16.508 16.5399 16.508 12.4H15.508C15.508 17.0921 19.3079 20.892 24 20.892V19.892ZM16.508 12.4C16.508 8.28512 19.8592 4.932 24 4.932V3.932C19.3088 3.932 15.508 7.73088 15.508 12.4H16.508ZM24 4.932H33.6V3.932H24V4.932ZM34.1 4.432V2.8H33.1V4.432H34.1ZM33.6 2.3H24V3.3H33.6V2.3ZM24 2.3C18.419 2.3 13.9 6.84467 13.9 12.4H14.9C14.9 7.39533 18.973 3.3 24 3.3V2.3Z" fill="#00204B"/>
<path d="M48.0859 21V4.19531H53.7578C56.1719 4.19531 58.1133 4.96484 59.582 6.50391C61.043 8.03516 61.7734 10.0664 61.7734 12.5977C61.7734 15.0195 61.0586 17.0273 59.6289 18.6211C58.207 20.207 56.25 21 53.7578 21H48.0859ZM50.8047 18.4805H53.5352C55.2773 18.4805 56.6055 17.9531 57.5195 16.8984C58.4336 15.8438 58.8906 14.4102 58.8906 12.5977C58.8906 10.8086 58.4336 9.38672 57.5195 8.33203C56.5977 7.26953 55.2695 6.73828 53.5352 6.73828H50.8047V18.4805ZM68.1602 21.2109C66.8242 21.2109 65.7734 20.8438 65.0078 20.1094C64.2266 19.4062 63.8359 18.4883 63.8359 17.3555C63.8359 16.1914 64.2578 15.2617 65.1016 14.5664C65.9609 13.8633 67.2266 13.5117 68.8984 13.5117C69.8906 13.5117 70.8516 13.6484 71.7812 13.9219V12.7734C71.7812 12.1406 71.582 11.625 71.1836 11.2266C70.7773 10.8438 70.1602 10.6523 69.332 10.6523C68.6133 10.6523 68.0547 10.8281 67.6562 11.1797C67.2422 11.5469 67.0234 11.9883 67 12.5039H64.4102C64.4102 11.3164 64.8594 10.332 65.7578 9.55078C66.6406 8.78516 67.8477 8.40234 69.3789 8.40234C70.9648 8.40234 72.2109 8.80859 73.1172 9.62109C74.0312 10.4414 74.4883 11.4805 74.4883 12.7383V21H72.0859L71.8984 19.5352H71.8047C71.0391 20.6523 69.8242 21.2109 68.1602 21.2109ZM68.7812 19.0312C69.6797 19.0312 70.4062 18.7656 70.9609 18.2344C71.5078 17.7109 71.7812 17.0742 71.7812 16.3242V15.9141C70.9453 15.625 70.0469 15.4805 69.0859 15.4805C68.2578 15.4805 67.6367 15.6328 67.2227 15.9375C66.7852 16.2578 66.5664 16.6992 66.5664 17.2617C66.5664 17.793 66.7578 18.2148 67.1406 18.5273C67.5 18.8633 68.0469 19.0312 68.7812 19.0312ZM77.7578 21V8.61328H80.0547L80.3008 10.582H80.3945C80.6758 9.91797 81.082 9.39844 81.6133 9.02344C82.1602 8.64062 82.8242 8.44922 83.6055 8.44922H84.6133V10.9922H83.5586C82.5117 10.9922 81.7266 11.3359 81.2031 12.0234C80.6641 12.7031 80.3945 13.6797 80.3945 14.9531V21H77.7578ZM91.5391 21.2109C89.8984 21.2109 88.6289 20.8203 87.7305 20.0391C86.793 19.2422 86.3125 18.1875 86.2891 16.875H89.0195C89.0195 17.4766 89.2461 17.957 89.6992 18.3164C90.1602 18.6836 90.7734 18.8672 91.5391 18.8672C93.125 18.8672 93.918 18.4023 93.918 17.4727C93.918 16.7383 93.375 16.2656 92.2891 16.0547L90.1094 15.6445C87.8203 15.1836 86.6758 13.9688 86.6758 12C86.6758 10.9609 87.1055 10.0977 87.9648 9.41016C88.8164 8.73828 89.9766 8.40234 91.4453 8.40234C92.9141 8.40234 94.1133 8.77734 95.043 9.52734C95.9414 10.2695 96.3906 11.2461 96.3906 12.457H93.707C93.6836 11.8867 93.4648 11.4297 93.0508 11.0859C92.6367 10.7656 92.0859 10.6055 91.3984 10.6055C90.7812 10.6055 90.2852 10.7266 89.9102 10.9688C89.5273 11.2344 89.3359 11.5859 89.3359 12.0234C89.3359 12.7578 89.8789 13.207 90.9648 13.3711L93.0742 13.7812C94.3164 14.0703 95.2148 14.4688 95.7695 14.9766C96.3789 15.5391 96.6836 16.3711 96.6836 17.4727C96.6836 18.6523 96.2031 19.5625 95.2422 20.2031C94.25 20.875 93.0156 21.2109 91.5391 21.2109ZM99.3672 21V3.23438H102.098V10.2188H102.191C102.957 9.00781 104.156 8.40234 105.789 8.40234C107.188 8.40234 108.285 8.80078 109.082 9.59766C109.879 10.418 110.277 11.5234 110.277 12.9141V21H107.547V13.582C107.547 11.7773 106.699 10.875 105.004 10.875C104.137 10.875 103.441 11.1719 102.918 11.7656C102.371 12.3594 102.098 13.1641 102.098 14.1797V21H99.3672ZM114.906 6.71484C114.344 6.71484 113.914 6.56641 113.617 6.26953C113.312 5.96484 113.16 5.53906 113.16 4.99219C113.16 4.46094 113.312 4.04297 113.617 3.73828C113.891 3.44141 114.32 3.29297 114.906 3.29297C115.477 3.29297 115.91 3.44141 116.207 3.73828C116.512 4.04297 116.664 4.46094 116.664 4.99219C116.664 5.51563 116.512 5.92969 116.207 6.23438C115.887 6.55469 115.453 6.71484 114.906 6.71484ZM113.547 21V8.61328H116.277V21H113.547ZM124.246 21.2109C121.801 21.2109 120.578 20.0117 120.578 17.6133V10.9453H118.527V8.61328H120.695V6L123.074 5.33203H123.309V8.61328H126.309V10.9453H123.309V17.1328C123.309 17.7266 123.438 18.1523 123.695 18.4102C123.969 18.6836 124.375 18.8203 124.914 18.8203C125.352 18.8203 125.754 18.7617 126.121 18.6445H126.355V20.9531C125.777 21.125 125.074 21.2109 124.246 21.2109ZM132.707 21.2109C131.371 21.2109 130.32 20.8438 129.555 20.1094C128.773 19.4062 128.383 18.4883 128.383 17.3555C128.383 16.1914 128.805 15.2617 129.648 14.5664C130.508 13.8633 131.773 13.5117 133.445 13.5117C134.438 13.5117 135.398 13.6484 136.328 13.9219V12.7734C136.328 12.1406 136.129 11.625 135.73 11.2266C135.324 10.8438 134.707 10.6523 133.879 10.6523C133.16 10.6523 132.602 10.8281 132.203 11.1797C131.789 11.5469 131.57 11.9883 131.547 12.5039H128.957C128.957 11.3164 129.406 10.332 130.305 9.55078C131.188 8.78516 132.395 8.40234 133.926 8.40234C135.512 8.40234 136.758 8.80859 137.664 9.62109C138.578 10.4414 139.035 11.4805 139.035 12.7383V21H136.633L136.445 19.5352H136.352C135.586 20.6523 134.371 21.2109 132.707 21.2109ZM133.328 19.0312C134.227 19.0312 134.953 18.7656 135.508 18.2344C136.055 17.7109 136.328 17.0742 136.328 16.3242V15.9141C135.492 15.625 134.594 15.4805 133.633 15.4805C132.805 15.4805 132.184 15.6328 131.77 15.9375C131.332 16.2578 131.113 16.6992 131.113 17.2617C131.113 17.793 131.305 18.2148 131.688 18.5273C132.047 18.8633 132.594 19.0312 133.328 19.0312ZM156.391 21.2109C153.922 21.2109 152.016 20.4219 150.672 18.8438C149.328 17.2891 148.656 15.2148 148.656 12.6211C148.656 10.0273 149.328 7.94141 150.672 6.36328C152.023 4.77734 153.93 3.98438 156.391 3.98438C158.422 3.98438 160.062 4.55078 161.312 5.68359C162.555 6.80859 163.258 8.28906 163.422 10.125H160.539C160.422 9.04688 160.016 8.18359 159.32 7.53516C158.633 6.89453 157.656 6.57422 156.391 6.57422C154.75 6.57422 153.531 7.125 152.734 8.22656C151.938 9.35156 151.539 10.8164 151.539 12.6211C151.539 14.4336 151.938 15.8906 152.734 16.9922C153.531 18.0938 154.75 18.6445 156.391 18.6445C157.586 18.6445 158.535 18.3398 159.238 17.7305C159.934 17.1289 160.375 16.2969 160.562 15.2344H163.422C163.211 17 162.488 18.4414 161.254 19.5586C160.035 20.6602 158.414 21.2109 156.391 21.2109ZM166.305 21V3.23438H169.035V10.2188H169.129C169.895 9.00781 171.094 8.40234 172.727 8.40234C174.125 8.40234 175.223 8.80078 176.02 9.59766C176.816 10.418 177.215 11.5234 177.215 12.9141V21H174.484V13.582C174.484 11.7773 173.637 10.875 171.941 10.875C171.074 10.875 170.379 11.1719 169.855 11.7656C169.309 12.3594 169.035 13.1641 169.035 14.1797V21H166.305ZM183.988 21.2109C182.652 21.2109 181.602 20.8438 180.836 20.1094C180.055 19.4062 179.664 18.4883 179.664 17.3555C179.664 16.1914 180.086 15.2617 180.93 14.5664C181.789 13.8633 183.055 13.5117 184.727 13.5117C185.719 13.5117 186.68 13.6484 187.609 13.9219V12.7734C187.609 12.1406 187.41 11.625 187.012 11.2266C186.605 10.8438 185.988 10.6523 185.16 10.6523C184.441 10.6523 183.883 10.8281 183.484 11.1797C183.07 11.5469 182.852 11.9883 182.828 12.5039H180.238C180.238 11.3164 180.688 10.332 181.586 9.55078C182.469 8.78516 183.676 8.40234 185.207 8.40234C186.793 8.40234 188.039 8.80859 188.945 9.62109C189.859 10.4414 190.316 11.4805 190.316 12.7383V21H187.914L187.727 19.5352H187.633C186.867 20.6523 185.652 21.2109 183.988 21.2109ZM184.609 19.0312C185.508 19.0312 186.234 18.7656 186.789 18.2344C187.336 17.7109 187.609 17.0742 187.609 16.3242V15.9141C186.773 15.625 185.875 15.4805 184.914 15.4805C184.086 15.4805 183.465 15.6328 183.051 15.9375C182.613 16.2578 182.395 16.6992 182.395 17.2617C182.395 17.793 182.586 18.2148 182.969 18.5273C183.328 18.8633 183.875 19.0312 184.609 19.0312ZM198.285 21.2109C195.84 21.2109 194.617 20.0117 194.617 17.6133V10.9453H192.566V8.61328H194.734V6L197.113 5.33203H197.348V8.61328H200.348V10.9453H197.348V17.1328C197.348 17.7266 197.477 18.1523 197.734 18.4102C198.008 18.6836 198.414 18.8203 198.953 18.8203C199.391 18.8203 199.793 18.7617 200.16 18.6445H200.395V20.9531C199.816 21.125 199.113 21.2109 198.285 21.2109ZM211.012 8.61328H213.754V16.3008C213.754 17.7461 213.289 18.9219 212.359 19.8281C211.43 20.7344 210.117 21.1875 208.422 21.1875C206.734 21.1875 205.43 20.7266 204.508 19.8047C203.562 18.8828 203.09 17.7148 203.09 16.3008V8.61328H205.832V15.8672C205.832 17.7344 206.695 18.668 208.422 18.668C210.148 18.668 211.012 17.7344 211.012 15.8672V8.61328ZM217.117 21V8.61328H219.414L219.66 10.582H219.754C220.035 9.91797 220.441 9.39844 220.973 9.02344C221.52 8.64062 222.184 8.44922 222.965 8.44922H223.973V10.9922H222.918C221.871 10.9922 221.086 11.3359 220.562 12.0234C220.023 12.7031 219.754 13.6797 219.754 14.9531V21H217.117ZM229.773 21L225.309 8.85938V8.61328H228.109L231.355 18.1641H231.449L234.59 8.61328H237.379V8.85938L232.984 21H229.773ZM244.141 21.2109C242.305 21.2109 240.871 20.6133 239.84 19.418C238.801 18.2148 238.281 16.6797 238.281 14.8125C238.281 12.9297 238.785 11.3906 239.793 10.1953C240.777 9 242.207 8.40234 244.082 8.40234C245.863 8.40234 247.242 8.96094 248.219 10.0781C249.195 11.1953 249.684 12.6445 249.684 14.4258V15.5742H241.117C241.117 16.5977 241.379 17.4062 241.902 18C242.418 18.6094 243.164 18.9141 244.141 18.9141C245.625 18.9141 246.527 18.3516 246.848 17.2266H249.508C249.344 18.3984 248.77 19.3516 247.785 20.0859C246.785 20.8359 245.57 21.2109 244.141 21.2109ZM241.141 13.6289H246.871C246.848 12.7695 246.609 12.0664 246.156 11.5195C245.672 10.9883 244.98 10.7227 244.082 10.7227C243.152 10.7227 242.434 10.9883 241.926 11.5195C241.426 12.0664 241.164 12.7695 241.141 13.6289ZM256.727 21.2109C255.141 21.2109 253.895 20.6289 252.988 19.4648C252.066 18.3164 251.594 16.7578 251.57 14.7891C251.594 12.8594 252.059 11.3125 252.965 10.1484C253.848 8.98438 255.102 8.40234 256.727 8.40234C258.352 8.40234 259.535 8.96875 260.277 10.1016H260.371V3.23438H263.113V21H260.688L260.371 19.5117H260.277C259.535 20.6445 258.352 21.2109 256.727 21.2109ZM257.406 18.7969C258.422 18.7969 259.188 18.418 259.703 17.6602C260.219 16.9023 260.477 15.9453 260.477 14.7891C260.477 13.6172 260.227 12.6641 259.727 11.9297C259.227 11.1953 258.453 10.8281 257.406 10.8281C256.344 10.8281 255.574 11.1953 255.098 11.9297C254.598 12.6641 254.348 13.6172 254.348 14.7891C254.348 15.9688 254.598 16.9258 255.098 17.6602C255.59 18.418 256.359 18.7969 257.406 18.7969ZM267.742 6.71484C267.18 6.71484 266.75 6.56641 266.453 6.26953C266.148 5.96484 265.996 5.53906 265.996 4.99219C265.996 4.46094 266.148 4.04297 266.453 3.73828C266.727 3.44141 267.156 3.29297 267.742 3.29297C268.312 3.29297 268.746 3.44141 269.043 3.73828C269.348 4.04297 269.5 4.46094 269.5 4.99219C269.5 5.51563 269.348 5.92969 269.043 6.23438C268.723 6.55469 268.289 6.71484 267.742 6.71484ZM266.383 21V8.61328H269.113V21H266.383Z" fill="#00204B"/>
</g>
<defs>
<clipPath id="clip0_201_21">
<rect width="271" height="24" fill="white"/>
</clipPath>
</defs>
</svg>
