<svg width="36" height="24" viewBox="0 0 36 24" fill="none" xmlns="http://www.w3.org/2000/svg">
<g clip-path="url(#clip0_111_46)">
<rect width="36" height="24" fill="white"/>
<path d="M12 2.8H2.4V4.432H12C16.392 4.432 19.968 8.008 19.968 12.4C19.968 16.816 16.392 20.392 12 20.392H2.4V22H12C17.28 22 21.6 17.704 21.6 12.4C21.6 7.12 17.28 2.8 12 2.8Z" fill="#00204B"/>
<path d="M2.4 2.8V2.3H1.9V2.8H2.4ZM2.4 4.432H1.9V4.932H2.4V4.432ZM2.4 20.392V19.892H1.9V20.392H2.4ZM2.4 22H1.9V22.5H2.4V22ZM12 2.3H2.4V3.3H12V2.3ZM1.9 2.8V4.432H2.9V2.8H1.9ZM2.4 4.932H12V3.932H2.4V4.932ZM12 4.932C16.1159 4.932 19.468 8.28414 19.468 12.4H20.468C20.468 7.73186 16.6681 3.932 12 3.932V4.932ZM19.468 12.4C19.468 16.5408 16.1149 19.892 12 19.892V20.892C16.6691 20.892 20.468 17.0912 20.468 12.4H19.468ZM12 19.892H2.4V20.892H12V19.892ZM1.9 20.392V22H2.9V20.392H1.9ZM2.4 22.5H12V21.5H2.4V22.5ZM12 22.5C17.5553 22.5 22.1 17.981 22.1 12.4H21.1C21.1 17.427 17.0047 21.5 12 21.5V22.5ZM22.1 12.4C22.1 6.84386 17.5561 2.3 12 2.3V3.3C17.0039 3.3 21.1 7.39614 21.1 12.4H22.1Z" fill="#00204B"/>
<path d="M14.4 12.4C14.4 17.704 18.696 22 24 22H33.6V20.392H24C19.584 20.392 16.008 16.816 16.008 12.4C16.008 8.008 19.584 4.432 24 4.432H33.6V2.8H24C18.696 2.8 14.4 7.12 14.4 12.4Z" fill="#00204B"/>
<path d="M33.6 22V22.5H34.1V22H33.6ZM33.6 20.392H34.1V19.892H33.6V20.392ZM33.6 4.432V4.932H34.1V4.432H33.6ZM33.6 2.8H34.1V2.3H33.6V2.8ZM13.9 12.4C13.9 17.9801 18.4199 22.5 24 22.5V21.5C18.9721 21.5 14.9 17.4279 14.9 12.4H13.9ZM24 22.5H33.6V21.5H24V22.5ZM34.1 22V20.392H33.1V22H34.1ZM33.6 19.892H24V20.892H33.6V19.892ZM24 19.892C19.8601 19.892 16.508 16.5399 16.508 12.4H15.508C15.508 17.0921 19.3079 20.892 24 20.892V19.892ZM16.508 12.4C16.508 8.28512 19.8592 4.932 24 4.932V3.932C19.3088 3.932 15.508 7.73088 15.508 12.4H16.508ZM24 4.932H33.6V3.932H24V4.932ZM34.1 4.432V2.8H33.1V4.432H34.1ZM33.6 2.3H24V3.3H33.6V2.3ZM24 2.3C18.419 2.3 13.9 6.84467 13.9 12.4H14.9C14.9 7.39533 18.973 3.3 24 3.3V2.3Z" fill="#00204B"/>
</g>
<defs>
<clipPath id="clip0_111_46">
<rect width="36" height="24" fill="white"/>
</clipPath>
</defs>
</svg>
