<svg width="30" height="30" viewBox="0 0 30 30" fill="none" xmlns="http://www.w3.org/2000/svg">
<circle cx="15" cy="15" r="14.5" stroke="#D1D5DB"/>
<g clip-path="url(#clip0_2011_874)">
<rect width="18" height="18" transform="translate(6 6)" fill="white"/>
<path d="M13.5 15.751C13.8221 16.1815 14.233 16.5378 14.7049 16.7957C15.1768 17.0535 15.6986 17.2068 16.235 17.2452C16.7713 17.2836 17.3097 17.2062 17.8135 17.0183C18.3173 16.8303 18.7748 16.5363 19.155 16.156L21.405 13.906C22.0881 13.1987 22.4661 12.2514 22.4575 11.2682C22.449 10.285 22.0546 9.34441 21.3593 8.64913C20.664 7.95385 19.7235 7.55947 18.7403 7.55092C17.757 7.54238 16.8098 7.92036 16.1025 8.60345L14.8125 9.88595" stroke="#374151" stroke-width="2" stroke-linecap="round" stroke-linejoin="round"/>
<path d="M16.5 14.2499C16.1779 13.8193 15.767 13.463 15.2951 13.2052C14.8232 12.9474 14.3014 12.7941 13.765 12.7557C13.2287 12.7173 12.6903 12.7946 12.1865 12.9826C11.6827 13.1705 11.2252 13.4646 10.845 13.8449L8.595 16.0949C7.9119 16.8022 7.53393 17.7494 7.54247 18.7327C7.55101 19.7159 7.9454 20.6565 8.64068 21.3517C9.33596 22.047 10.2765 22.4414 11.2597 22.45C12.243 22.4585 13.1902 22.0805 13.8975 21.3974L15.18 20.1149" stroke="#374151" stroke-width="2" stroke-linecap="round" stroke-linejoin="round"/>
</g>
<defs>
<clipPath id="clip0_2011_874">
<rect width="18" height="18" fill="white" transform="translate(6 6)"/>
</clipPath>
</defs>
</svg>
