<svg width="32" height="32" viewBox="0 0 32 32" fill="none" xmlns="http://www.w3.org/2000/svg">
<circle cx="15" cy="17" r="14.5" stroke="#D1D5DB"/>
<path d="M7.5 10.25H12C12.7956 10.25 13.5587 10.5661 14.1213 11.1287C14.6839 11.6913 15 12.4544 15 13.25V23.75C15 23.1533 14.7629 22.581 14.341 22.159C13.919 21.7371 13.3467 21.5 12.75 21.5H7.5V10.25Z" stroke="#374151" stroke-width="2" stroke-linecap="round" stroke-linejoin="round"/>
<path d="M22.5 10.25H18C17.2044 10.25 16.4413 10.5661 15.8787 11.1287C15.3161 11.6913 15 12.4544 15 13.25V23.75C15 23.1533 15.2371 22.581 15.659 22.159C16.081 21.7371 16.6533 21.5 17.25 21.5H22.5V10.25Z" stroke="#374151" stroke-width="2" stroke-linecap="round" stroke-linejoin="round"/>
<path fill-rule="evenodd" clip-rule="evenodd" d="M31.8836 15C30.8937 6.55366 23.7122 0 15 0C13.9763 0 12.9738 0.0904756 12 0.263866V2.30005C12.9693 2.10329 13.9726 2 15 2C22.6062 2 28.89 7.66128 29.8678 15H31.8836Z" fill="#374151"/>
</svg>
